<svg width="26" height="26" viewBox="0 0 26 26" fill="none" xmlns="http://www.w3.org/2000/svg">
<g id="icon-park:download-laptop">
<g id="Group">
<g id="Vector">
<path d="M13.5399 3.35742H5.99073C5.09731 3.35742 4.37305 4.20946 4.37305 5.26058V18.5826H21.6283V13.5076" fill="#FFD7A5"/>
<path d="M13.5399 3.35742H5.99073C5.09731 3.35742 4.37305 4.20946 4.37305 5.26058V18.5826H21.6283V13.5076" stroke="#FAC783" stroke-width="2.84615" stroke-linecap="round" stroke-linejoin="round"/>
</g>
<path id="Vector_2" d="M2.1665 17.875H23.8332V18.9583C23.8332 20.7533 22.3781 22.2083 20.5832 22.2083H5.4165C3.62158 22.2083 2.1665 20.7533 2.1665 18.9583V17.875Z" fill="#FAC783" stroke="#FAC783" stroke-width="2.84615" stroke-linejoin="round"/>
<g id="Group 33791">
<path id="Vector_3" d="M8.44321 9.46845H15.6199C16.2351 9.46845 16.6452 9.05839 16.6452 8.44321C16.6452 7.82803 16.2351 7.41797 15.6199 7.41797H8.44321C7.82803 7.41797 7.41797 7.82803 7.41797 8.44321C7.41797 9.05839 7.82803 9.46845 8.44321 9.46845Z" fill="#FFD7A5"/>
<path id="Vector_4" d="M11.5189 11.5195H8.44321C7.82803 11.5195 7.41797 12.0322 7.41797 12.5448C7.41797 13.0574 7.82803 13.57 8.44321 13.57H11.5189C12.1341 13.57 12.5442 13.16 12.5442 12.5448C12.5442 11.9296 12.1341 11.5195 11.5189 11.5195Z" fill="#FFD7A5"/>
<path id="Vector_5" d="M16.8507 10.1855L14.2876 10.4931L13.98 13.0562L14.6977 12.3384L16.133 13.7739L17.5683 12.3384L16.133 10.9031L16.8507 10.1855Z" fill="#FFD7A5"/>
</g>
</g>
<path id="Vector 168" d="M14.5234 3.35742H20.6285C21.1808 3.35742 21.6285 3.80514 21.6285 4.35742V13.5076" stroke="#FAC783" stroke-width="2.2" stroke-linejoin="round"/>
<path id="Vector 169" d="M14.2104 3.04492L21.3156 13.1951" stroke="#FAC783" stroke-width="2.2" stroke-linejoin="round"/>
</g>
</svg>
